<?xml version="1.0" encoding="UTF-8" standalone="no"?>
<svg
   xmlns:dc="http://purl.org/dc/elements/1.1/"
   xmlns:cc="http://creativecommons.org/ns#"
   xmlns:rdf="http://www.w3.org/1999/02/22-rdf-syntax-ns#"
   xmlns:svg="http://www.w3.org/2000/svg"
   xmlns="http://www.w3.org/2000/svg"
   xmlns:sodipodi="http://sodipodi.sourceforge.net/DTD/sodipodi-0.dtd"
   xmlns:inkscape="http://www.inkscape.org/namespaces/inkscape"
   version="1.1"
   width="1548.9854"
   height="1505.6138"
   viewBox="0 0 1548.9853 1505.6138"
   id="svg15"
   sodipodi:docname="islamic-4910915.svg"
   inkscape:version="0.92.3 (2405546, 2018-03-11)">
  <metadata
     id="metadata21">
    <rdf:RDF>
      <cc:Work
         rdf:about="">
        <dc:format>image/svg+xml</dc:format>
        <dc:type
           rdf:resource="http://purl.org/dc/dcmitype/StillImage" />
        <dc:title></dc:title>
      </cc:Work>
    </rdf:RDF>
  </metadata>
  <defs
     id="defs19" />
  <sodipodi:namedview
     pagecolor="#ffffff"
     bordercolor="#666666"
     borderopacity="1"
     objecttolerance="10"
     gridtolerance="10"
     guidetolerance="10"
     inkscape:pageopacity="0"
     inkscape:pageshadow="2"
     inkscape:window-width="1366"
     inkscape:window-height="705"
     id="namedview17"
     showgrid="false"
     fit-margin-top="0"
     fit-margin-left="0"
     fit-margin-right="0"
     fit-margin-bottom="0"
     inkscape:zoom="0.17378498"
     inkscape:cx="737.01191"
     inkscape:cy="117.57049"
     inkscape:window-x="-8"
     inkscape:window-y="-8"
     inkscape:window-maximized="1"
     inkscape:current-layer="layer1" />
  <g
     id="layer1"
     transform="translate(377.01191,709.04328)">
    <g
       id="g6">
      <g
         style="fill:#000000;fill-opacity:1;stroke-linejoin:miter"
         id="g4">
        <path
           d="m 354.4531,-707.0817 c -23.0627,17.3832 -37.0379,39.5508 -41.03092,64.9887 -1.06698,6.84996 -1.06698,19.17314 0,26.1609 5.02582,32.39084 24.95596,59.2398 55.38495,74.48874 10.01669,4.99103 20.3089,8.39906 31.90915,10.53326 2.65036,0.48194 4.85336,0.9294 4.92224,0.9983 0.0688,0.0347 0,1.9623 -0.10318,4.23407 l -0.24097,4.13023 -1.10157,0.4135 c -1.82442,0.6539 -2.6849,1.85873 -2.8571,3.95834 -0.17194,2.23731 0.68853,3.99296 2.34075,4.68126 l 1.03255,0.4133 v 3.02916 c 0,1.65237 -0.10317,4.13024 -0.20634,5.54154 l -0.24109,2.54754 -1.30797,0.61942 c -4.0274,1.8934 -4.1306,8.60564 -0.2065,10.73989 0.86063,0.44745 1.13587,0.7916 0.9981,1.2735 -0.0688,0.34415 -0.41302,0.61942 -0.7227,0.61942 -0.30985,0 -1.48017,0.44748 -2.61616,0.9985 -2.58144,1.20465 -5.02542,3.82056 -6.05824,6.50559 -1.06712,2.71948 -1.06712,6.67779 0.0344,9.53476 1.06714,2.71948 3.95856,5.67981 6.47126,6.57473 1.10155,0.41303 1.7901,0.86023 1.7901,1.1702 0,0.27551 -1.3425,2.61615 -2.96028,5.16342 -12.25424,19.27643 -27.57205,36.76227 -47.50232,54.24833 -41.99475,36.86584 -102.26747,69.7047 -182.57386,99.51412 -24.3705,9.01818 -42.99271,15.35208 -79.342326,26.98642 -55.350407,17.69321 -63.474034,20.41246 -76.967364,25.78202 -15.4553895,6.19612 -25.368875,10.63634 -42.13247,18.93228 -38.82776,19.24173 -70.84011,40.48022 -100.51176,66.77832 -10.53308,9.32838 -25.9541,25.30011 -36.0054,37.34797 -35.97078,42.95863 -58.99901,94.419087 -66.88162,149.321755 -2.23745,15.59314 -2.99468,26.298355 -2.99468,42.097882 0.0344,20.825463 1.23914,36.315283 4.37152,55.901163 1.17038,7.4357 4.0618,22.09923 4.81911,24.50875 0.17207,0.58523 -0.75731,0.61942 -15.97168,0.61917 h -16.17837 l -0.2065,1.10156 c -0.10328,0.61966 -0.3098,9.70697 -0.41315,20.13692 l -0.24091,19.03535 -58.99902,-2.7e-4 -58.96469,2.6e-4 7e-5,306.01051 5e-5,306.01038 774.49249,6.4e-4 774.4928,4e-4 -10e-5,-306.01053 V 184.54935 l -55.9357,-2.5e-4 -55.9355,2.5e-4 V 163.9994 143.4839 l -10.3264,0.24108 c -5.6798,0.10307 -10.3268,0.13775 -10.3268,0.0342 0,-0.13752 0.5508,-3.40778 1.2049,-7.33164 5.5419,-33.14833 7.3662,-62.51032 5.6796,-91.28708 -2.5128,-42.2353969 -12.2199,-79.824194 -29.8096,-115.48538 -14.0785,-28.60431 -32.66644,-54.6279 -56.14198,-78.65424 -50.32501,-51.52958 -114.90046,-88.46428 -211.62592,-121.02716 -18.17474,-6.12722 -46.98594,-15.00816 -69.70444,-21.47931 -11.7723,-3.33885 -14.6637,-4.37158 -43.0273,-15.3865 -66.6409,-25.88532 -114.83155,-49.01695 -145.60462,-69.91107 -22.02998,-14.93906 -37.03803,-28.84564 -54.008,-49.98056 -5.16321,-6.47138 -27.22775,-35.73004 -27.22775,-36.14307 0,-0.17197 0.99827,-0.79163 2.203,-1.34241 2.58173,-1.23907 4.71585,-3.44194 5.9895,-6.16168 0.79163,-1.68656 0.92939,-2.40926 0.92939,-5.05986 -0.0345,-2.71925 -0.13776,-3.37334 -1.1016,-5.36958 -1.58334,-3.44248 -4.75015,-6.05838 -8.05459,-6.74668 -1.37699,-0.27551 -1.30811,-1.23931 0.17207,-2.1687 1.82442,-1.10156 2.78822,-2.89142 2.78822,-5.16317 0,-2.40979 -1.03268,-4.13102 -3.1325,-5.37009 -1.44572,-0.86023 -1.51447,-0.96381 -1.51447,-2.47815 0,-0.89517 -0.10333,-3.33913 -0.20663,-5.40451 l -0.24097,-3.78638 1.27377,-0.61944 c 1.6521,-0.7574 2.75368,-3.0636 2.40952,-4.92234 -0.27551,-1.51456 -1.58347,-3.09776 -3.09818,-3.75186 l -1.13576,-0.4475 -0.1032,-3.92435 c -0.069,-2.13428 -0.069,-3.99275 -0.0346,-4.09605 0.0346,-0.10336 1.03269,-0.0687 2.23734,0.0688 15.83411,1.89297 30.87659,1.5146 43.30293,-1.1013 9.50045,-1.9967 17.17647,-4.5782 25.12792,-8.50256 5.61078,-2.78784 13.35556,-7.71044 18.24362,-11.669 3.09793,-2.47814 11.56583,-10.53304 12.08206,-11.49684 0.17206,-0.37835 -1.44574,0.2066 -4.61255,1.6521 -17.21095,7.88294 -32.56315,12.28895 -49.11995,14.0788 -6.60917,0.6883 -23.26918,0.51636 -28.74247,-0.3444 -8.77747,-1.3424 -15.00779,-2.8225 -22.02997,-5.2665 -33.28586,-11.53155 -58.48264,-38.7937 -66.43421,-71.83874 -2.20288,-9.08726 -3.09781,-21.30682 -2.27175,-30.15356 1.1359,-11.669 4.26827,-22.6837 9.5002,-33.3203 3.58,-7.29744 6.7468,-12.3573 12.42634,-19.7925 0.68854,-0.89496 1.17044,-1.6177 1.10156,-1.6177 -0.0689,0 -1.27362,0.86026 -2.6849,1.9616 z M 696.6071,445.46704 V 706.3847 L 397.584,706.31586 98.52672,706.2125 98.42341,445.8109 c -0.03443,-143.22942 -1.16e-4,-260.60822 0.1032,-260.84905 0.1032,-0.30995 60.27266,-0.41302 299.12616,-0.41276 l 298.95423,-2.6e-4 z"
           id="path2"
           inkscape:connector-curvature="0" />
      </g>
    </g>
    <g
       id="g12">
      <g
         style="fill:#000000;fill-opacity:1;stroke-linejoin:miter"
         id="g10">
        <path
           d="m 291.09717,305.3251 c -0.0111,0 -0.0219,3.7e-4 -0.0322,10e-4 -0.302,0 -4.22787,3.32199 -8.75778,6.94576 -4.22791,3.6239 -13.58969,11.17384 -20.53558,16.91178 -12.38172,9.96576 -30.19933,40.76868 -30.19933,51.94248 0,2.71804 6.64388,8.45587 15.09969,12.98574 9.66376,5.13404 15.09973,10.26783 15.09973,13.58976 0,3.01994 2.11393,7.24784 4.52983,9.36166 6.3419,5.13398 5.73793,17.21365 -1.50997,27.48138 -13.58975,19.02555 -17.51556,33.82322 -22.3475,84.55774 -2.71794,27.78321 -4.83188,60.70056 -4.83188,73.38426 0,12.6836 -1.20796,22.9512 -2.718,22.9512 -4.52992,10e-5 -6.34187,9.36193 -3.01991,15.7037 2.41594,4.5298 2.11392,7.2477 -1.81195,11.47574 -2.71801,3.02002 -5.73792,10.87182 -6.64396,17.5155 -1.81193,12.68386 3.62394,33.82312 8.45587,33.82312 1.50994,-1.2e-4 2.71792,2.7179 2.71792,6.03979 0,3.44595 -0.76799,4.89539 -3.61872,4.89551 -1.14637,0 -2.62957,-0.23449 -4.5351,-0.6676 -7.25883,-1.42786 -19.72236,-2.05872 -32.16184,-2.05872 -19.12976,1.3e-4 -38.20256,1.49196 -38.20256,3.87096 -6e-5,4.8318 -21.74365,33.219 -35.93735,46.80873 -6.94582,6.34187 -12.38173,12.68367 -12.38173,13.58967 0,0.9061 117.17348,1.812 260.62042,2.11376 143.14496,0.302 276.32396,1.50989 295.95362,2.41564 7.862,0.3573 15.01941,0.52687 20.76758,0.52687 8.82409,0 14.32721,-0.39917 13.96156,-1.13077 -2.416,-6.03964 -20.8376,-30.5011 -36.8431,-49.8285 l -17.81756,-21.1397 -15.40164,1.8123 c -8.4558,1.20775 -48.62094,2.71776 -89.08805,3.6239 -17.6571,0.2704 -31.35875,0.4806 -41.99102,0.48045 -36.82935,0 -36.82935,-2.51989 -36.82935,-13.76831 0,-15.09948 -8.15381,-23.55529 -33.82328,-36.23901 -13.8917,-6.64368 -37.14526,-15.09963 -51.6409,-19.02539 -23.8575,-6.64394 -26.27346,-7.85194 -24.46148,-13.28774 1.20798,-3.32176 1.81192,-20.8374 1.20798,-38.957 l -0.4774,-26.01405 0.005,0.002 q 4.26111,0.14736 8.24988,0.14736 20.34613,0 33.6091,-3.87637 l 0.006,0.002 c 0.9785,0.0384 1.90814,0.0607 2.79642,0.0607 8.52282,-1.3e-4 13.23398,-2.04723 20.69293,-9.95849 l -0.006,0.002 q 14.77463,-8.6811 30.45948,-23.86423 14.94336,-14.11267 40.98877,-44.75699 L 447.88373,453.207 v 0.002 l 9.57967,-9.87161 c 10.8718,-11.17368 15.70365,-24.46137 15.70365,-43.48704 0,-13.53396 -2.9241,-22.33364 -6.12485,-22.33364 -1.51303,0 -3.0879,1.96621 -4.4449,6.32818 -1.81193,5.73766 -5.4358,10.56971 -23.25355,31.10514 -4.83182,5.13392 -8.45578,11.77768 -8.45578,14.7977 0,13.67489 -14.29657,41.36652 -33.16697,63.89802 l -0.006,0.002 -13.14938,12.61353 -11.0566,-9.16879 c -6.64387,-5.73786 -14.79765,-10.87168 -17.8176,-12.07984 -3.0199,-0.90573 -9.66374,-7.5497 -15.09968,-15.09936 -5.13382,-7.24774 -12.07968,-14.19364 -15.40158,-15.09954 -6.94594,-2.11412 -7.24796,-3.624 -1.51007,-13.5899 2.41595,-4.22795 4.2279,-10.5697 4.52993,-13.89168 0,-2.28792 0.88425,-4.39886 2.65287,-6.23724 l -0.005,0.002 4.4792,-0.90809 7.42135,-1.51092 0.73243,-0.35886 c 0.93672,-0.45282 1.45972,-0.7883 2.19244,-1.37024 1.59491,-1.27899 2.92948,-3.5596 3.02762,-5.18524 0.0788,-1.31863 -0.40088,-2.57168 -2.15874,-5.64252 -0.324,-0.56706 -0.56282,-0.98646 -0.74074,-1.30908 l -0.005,0.002 c 0.005,-1.17987 -0.0207,-2.5016 -0.0696,-3.99124 l -0.005,0.002 c 0.1427,-0.304 0.31617,-0.63343 0.52332,-0.99913 0.75503,-1.32714 0.82748,-1.50197 0.76305,-1.82852 -0.0779,-0.3948 -0.3724,-0.71161 -1.24163,-1.36105 -0.0734,-0.0541 -0.14317,-0.10602 -0.20929,-0.15607 l -0.005,0.002 c -0.0323,-0.71934 -0.067,-1.46689 -0.10346,-2.24588 l -0.005,0.002 c 0.84028,-1.02301 1.06116,-1.6029 0.93549,-2.31879 -0.10013,-0.55066 -0.31674,-0.86242 -1.15982,-1.62398 l -0.005,0.002 c -0.15598,-2.28452 -0.32691,-4.30527 -0.52933,-6.10669 l -0.005,0.002 c 0.23585,-0.0966 0.4993,-0.19382 0.79344,-0.29529 0.0873,-0.0293 0.16812,-0.0588 0.24596,-0.0907 0.3852,-0.15811 0.7017,-0.37678 1.40852,-0.93213 1.69095,-1.33353 2.30581,-2.15109 2.39242,-3.15885 0.0708,-0.81728 -0.33609,-1.70086 -1.40951,-3.02377 -1.34403,-1.65323 -3.1416,-3.29748 -8.33945,-7.65246 -3.24063,-2.71577 -4.96638,-4.22214 -6.19153,-5.40824 l -0.20889,-0.20303 -0.005,0.002 c -0.1632,-0.27185 -0.31906,-0.54318 -0.46673,-0.81424 l -0.005,0.002 0.0573,-0.31637 c 0.38278,-2.03934 0.10004,-3.8309 -1.0336,-6.54297 -1.78802,-4.30585 -4.5567,-8.20337 -8.01495,-11.2956 -0.39789,-0.35739 -0.81082,-0.70853 -1.23645,-1.05197 l -0.005,0.002 C 311.62064,327.93683 293.5202,305.3251 291.09717,305.3251 Z"
           id="path8"
           inkscape:connector-curvature="0" />
      </g>
    </g>
    <path
       style="opacity:0.98999999;fill:#3771c8;fill-opacity:1;fill-rule:nonzero;stroke:#000000;stroke-width:3.4000001;stroke-linecap:round;stroke-linejoin:round;stroke-miterlimit:4;stroke-dasharray:none;stroke-dashoffset:0;stroke-opacity:1"
       d="M -376.54237,490.26102 V 185.28644 h 60.41949 60.41949 v -20.13983 c 0,-18.33173 1.48043,-20.13983 16.49007,-20.13983 16.30603,0 16.43726,-0.27275 11.75907,-24.45551 -21.48835,-111.0779713 24.87225,-226.41248 120.62807,-300.0949 49.357864,-37.98 99.8263923,-61.90373 207.8855,-98.5445 156.02177,-52.90399 247.35343,-103.45156 286.22417,-158.41101 8.73032,-12.3438 17.26265,-22.49856 18.96073,-22.56613 1.69801,-0.0676 12.78597,12.86801 24.63981,28.74575 11.85385,15.87774 32.47444,36.93597 45.82358,46.79607 39.65867,29.29312 135.5215,72.50416 226.63265,102.15673 46.94273,15.27773 102.53683,35.6006 123.54244,45.16195 149.16917,67.89881 225.8169,185.666455 215.3377,330.861973 -3.1049,43.019767 -2.3473,50.349577 5.2042,50.349577 6.2645,0 8.8381,5.86455 8.8381,20.13983 v 20.13983 h 57.5424 57.5424 V 490.26102 795.23559 H 397.40254 -376.54237 Z m 607.46838,191.32839 c 0.74397,-65.41642 20.21734,-204.22421 31.84942,-227.02492 9.95805,-19.51941 10.73562,-25.64002 5.01257,-39.45675 -3.72564,-8.99444 -13.00216,-20.43444 -20.6145,-25.42222 l -13.8406,-9.06873 11.41514,-22.37547 c 11.94441,-23.41301 42.3757,-49.40508 51.34954,-43.85891 2.87488,1.77673 14.54487,17.26835 25.93337,34.42587 21.39547,32.23369 27.14591,62.94526 12.81544,68.44441 -4.34002,1.66539 -9.64456,10.01514 -11.78796,18.555 -4.35855,17.36583 2.37811,27.02081 39.26082,56.26833 l 22.45901,17.80977 19.04912,-22.0366 c 10.47703,-12.1201 22.11555,-31.3278 25.86334,-42.68379 3.74779,-11.35593 14.19996,-30.84294 23.22698,-43.30437 l 16.41281,-22.65725 -0.023,19.56463 c -0.0115,10.76054 -5.07288,27.84913 -11.24671,37.97463 l -11.22525,18.40999 17.00095,14.30538 c 9.35058,7.86794 17.00101,16.84473 17.00101,19.94833 0,3.10361 -15.64376,19.7997 -34.76388,37.10246 -33.03617,29.89735 -51.94235,38.5569 -84.17868,38.5569 -13.51233,0 -13.8783,1.14717 -12.22776,38.32892 l 1.70147,38.32892 37.69434,12.6943 c 47.74406,16.07872 62.59989,25.33182 66.71941,41.55676 3.2775,12.90848 3.64502,12.94703 123.50244,12.94703 H 699.5 V 444.17579 179.42955 l -300.6589,1.48988 -300.658897,1.48989 -1.496608,263.25636 -1.496602,263.25635 h 67.713087 67.71309 l 0.31073,-27.33262 z"
       id="path831"
       inkscape:connector-curvature="0" />
  </g>
</svg>
