<?xml version="1.0" encoding="UTF-8"?>
<!-- Created with Inkscape (http://www.inkscape.org/) -->
<svg width="11.338in" height="5.6711in" version="1.1" viewBox="0 0 1088.5 544.43" xml:space="preserve" xmlns="http://www.w3.org/2000/svg" xmlns:cc="http://creativecommons.org/ns#" xmlns:dc="http://purl.org/dc/elements/1.1/" xmlns:rdf="http://www.w3.org/1999/02/22-rdf-syntax-ns#"><metadata><rdf:RDF><cc:Work rdf:about=""><dc:format>image/svg+xml</dc:format><dc:type rdf:resource="http://purl.org/dc/dcmitype/StillImage"/><dc:title/></cc:Work></rdf:RDF></metadata><defs><linearGradient id="linearGradient28" x2="1" gradientTransform="matrix(-1.78e-5 408.32 408.32 1.78e-5 500 298.94)" gradientUnits="userSpaceOnUse"><stop stop-color="#fcbf60" offset="0"/><stop stop-color="#fffce6" offset="1"/></linearGradient><clipPath id="clipPath38"><path d="m573.43 609.16c-5.424 0-9.821-4.398-9.821-9.824h-9.156c-2.987 0-5.409-2.426-5.409-5.413 0-2.99 2.422-5.413 5.409-5.413h28.944c0-5.427 4.397-9.825 9.821-9.825h16.335c5.428 0 9.828 4.398 9.828 9.825h9.153c2.988 0 5.412 2.423 5.412 5.413 0 2.987-2.424 5.413-5.412 5.413h-28.943c0 5.426-4.401 9.824-9.826 9.824z"/></clipPath><linearGradient id="linearGradient52" x2="1" gradientTransform="matrix(84.902 0 0 -84.902 549.05 593.93)" gradientUnits="userSpaceOnUse"><stop stop-color="#fff" offset="0"/><stop stop-color="#fff" stop-opacity="0" offset="1"/></linearGradient><mask id="mask54" x="0" y="0" width="1" height="1" maskUnits="userSpaceOnUse"><path d="m-32768 32767h65535v-65535h-65535z" fill="url(#linearGradient52)"/></mask><linearGradient id="linearGradient74" x2="1" gradientTransform="matrix(84.902 0 0 -84.902 549.05 593.93)" gradientUnits="userSpaceOnUse"><stop stop-color="#ffffd3" offset="0"/><stop stop-color="#fff" offset="1"/></linearGradient><clipPath id="clipPath84"><path d="m551.59 632.52c-8.225 0-15.206-5.326-17.694-12.717h-16.541c-6.799 0-12.308-5.51-12.308-12.309h-11.47c-3.745 0-6.78-3.037-6.78-6.781 0-3.747 3.035-6.781 6.78-6.781h136.47c3.743 0 6.777 3.034 6.777 6.781 0 3.744-3.034 6.781-6.777 6.781h-16.344c0 6.799-5.513 12.309-12.312 12.309h-1.076c-2.484 7.391-9.465 12.717-17.69 12.717z"/></clipPath><linearGradient id="linearGradient98" x2="1" gradientTransform="matrix(150.03 0 0 -150.03 486.8 613.22)" gradientUnits="userSpaceOnUse"><stop stop-color="#fff" offset="0"/><stop stop-color="#fff" stop-opacity="0" offset="1"/></linearGradient><mask id="mask100" x="0" y="0" width="1" height="1" maskUnits="userSpaceOnUse"><path d="m-32768 32767h65535v-65535h-65535z" fill="url(#linearGradient98)"/></mask><linearGradient id="linearGradient120" x2="1" gradientTransform="matrix(150.03 0 0 -150.03 486.8 613.22)" gradientUnits="userSpaceOnUse"><stop stop-color="#ffffd3" offset="0"/><stop stop-color="#fff" offset="1"/></linearGradient><clipPath id="clipPath130"><path d="m410.58 575.91c-5.426 0-9.822-4.396-9.822-9.823h-9.157c-2.988 0-5.41-2.425-5.41-5.414 0-2.988 2.422-5.411 5.41-5.411h28.944c0-5.426 4.398-9.826 9.825-9.826h16.335c5.424 0 9.824 4.4 9.824 9.826h9.154c2.99 0 5.412 2.423 5.412 5.411 0 2.989-2.422 5.414-5.412 5.414h-28.941c0 5.427-4.402 9.823-9.828 9.823z"/></clipPath><linearGradient id="linearGradient144" x2="1" gradientTransform="matrix(84.903 0 0 -84.903 386.19 560.68)" gradientUnits="userSpaceOnUse"><stop stop-color="#fff" offset="0"/><stop stop-color="#fff" stop-opacity="0" offset="1"/></linearGradient><mask id="mask146" x="0" y="0" width="1" height="1" maskUnits="userSpaceOnUse"><path d="m-32768 32767h65535v-65535h-65535z" fill="url(#linearGradient144)"/></mask><linearGradient id="linearGradient166" x2="1" gradientTransform="matrix(84.903 0 0 -84.903 386.19 560.68)" gradientUnits="userSpaceOnUse"><stop stop-color="#ffffd3" offset="0"/><stop stop-color="#fff" offset="1"/></linearGradient><clipPath id="clipPath176"><path d="m388.73 599.26c-8.227 0-15.209-5.324-17.695-12.714h-16.54c-6.8 0-12.312-5.512-12.312-12.311h-11.468c-3.745 0-6.779-3.035-6.779-6.782 0-3.743 3.034-6.781 6.779-6.781h136.47c3.744 0 6.781 3.038 6.781 6.781 0 3.747-3.037 6.782-6.781 6.782h-16.339c0 6.799-5.513 12.311-12.313 12.311h-1.077c-2.485 7.39-9.464 12.714-17.693 12.714z"/></clipPath><linearGradient id="linearGradient190" x2="1" gradientTransform="matrix(150.03 0 0 -150.03 323.94 579.97)" gradientUnits="userSpaceOnUse"><stop stop-color="#fff" offset="0"/><stop stop-color="#fff" stop-opacity="0" offset="1"/></linearGradient><mask id="mask192" x="0" y="0" width="1" height="1" maskUnits="userSpaceOnUse"><path d="m-32768 32767h65535v-65535h-65535z" fill="url(#linearGradient190)"/></mask><linearGradient id="linearGradient212" x2="1" gradientTransform="matrix(150.03 0 0 -150.03 323.94 579.97)" gradientUnits="userSpaceOnUse"><stop stop-color="#ffffd3" offset="0"/><stop stop-color="#fff" offset="1"/></linearGradient><clipPath id="clipPath222"><path d="m261.78 493.57c-4.673 0-8.46-3.786-8.46-8.458h-7.883c-2.571 0-4.659-2.088-4.659-4.663 0-2.572 2.088-4.66 4.659-4.66h24.922c0-4.673 3.788-8.462 8.46-8.462h14.066c4.674 0 8.463 3.789 8.463 8.462h7.88c2.576 0 4.661 2.088 4.661 4.66 0 2.575-2.085 4.663-4.661 4.663h-24.922c0 4.672-3.787 8.458-8.462 8.458z"/></clipPath><linearGradient id="linearGradient236" x2="1" gradientTransform="matrix(73.111 0 0 -73.111 240.78 480.45)" gradientUnits="userSpaceOnUse"><stop stop-color="#fff" offset="0"/><stop stop-color="#fff" stop-opacity="0" offset="1"/></linearGradient><mask id="mask238" x="0" y="0" width="1" height="1" maskUnits="userSpaceOnUse"><path d="m-32768 32767h65535v-65535h-65535z" fill="url(#linearGradient236)"/></mask><linearGradient id="linearGradient258" x2="1" gradientTransform="matrix(73.111 0 0 -73.111 240.78 480.45)" gradientUnits="userSpaceOnUse"><stop stop-color="#ffffd3" offset="0"/><stop stop-color="#fff" offset="1"/></linearGradient><clipPath id="clipPath268"><path d="m242.97 513.68c-7.084 0-13.094-4.584-15.235-10.947h-14.244c-5.856 0-10.6-4.747-10.6-10.601h-9.876c-3.225 0-5.839-2.615-5.839-5.84s2.614-5.84 5.839-5.84h175.29c3.224 0 5.839 2.615 5.839 5.84s-2.615 5.84-5.839 5.84h-14.073c0 5.854-4.746 10.601-10.599 10.601h-0.93c-2.139 6.363-8.148 10.947-15.236 10.947z"/></clipPath><linearGradient id="linearGradient282" x2="1" gradientTransform="matrix(186.96 0 0 -186.96 187.17 497.06)" gradientUnits="userSpaceOnUse"><stop stop-color="#fff" offset="0"/><stop stop-color="#fff" stop-opacity="0" offset="1"/></linearGradient><mask id="mask284" x="0" y="0" width="1" height="1" maskUnits="userSpaceOnUse"><path d="m-32768 32767h65535v-65535h-65535z" fill="url(#linearGradient282)"/></mask><linearGradient id="linearGradient304" x2="1" gradientTransform="matrix(186.96 0 0 -186.96 187.17 497.06)" gradientUnits="userSpaceOnUse"><stop stop-color="#ffffd3" offset="0"/><stop stop-color="#fff" offset="1"/></linearGradient><clipPath id="clipPath314"><path d="m752.12 500.55c-5.194 0-9.404-4.211-9.404-9.409h-8.768c-2.86 0-5.182-2.321-5.182-5.182s2.322-5.182 5.182-5.182h27.712c0-5.196 4.213-9.407 9.409-9.407h15.638c5.197 0 9.409 4.211 9.409 9.407h8.762c2.867 0 5.185 2.321 5.185 5.182s-2.318 5.182-5.185 5.182h-27.705c0 5.198-4.216 9.409-9.412 9.409z"/></clipPath><linearGradient id="linearGradient328" x2="1" gradientTransform="matrix(81.297 0 0 -81.297 728.77 485.96)" gradientUnits="userSpaceOnUse"><stop stop-color="#fff" offset="0"/><stop stop-color="#fff" stop-opacity="0" offset="1"/></linearGradient><mask id="mask330" x="0" y="0" width="1" height="1" maskUnits="userSpaceOnUse"><path d="m-32768 32767h65535v-65535h-65535z" fill="url(#linearGradient328)"/></mask><linearGradient id="linearGradient350" x2="1" gradientTransform="matrix(81.297 0 0 -81.297 728.77 485.96)" gradientUnits="userSpaceOnUse"><stop stop-color="#ffffd3" offset="0"/><stop stop-color="#fff" offset="1"/></linearGradient><clipPath id="clipPath360"><path d="m730.57 542.29c-5.198 0-9.407-4.212-9.407-9.406h-8.769c-2.859 0-5.181-2.321-5.181-5.184 0-2.86 2.322-5.182 5.181-5.182h27.712c0-5.194 4.213-9.409 9.407-9.409h15.64c5.198 0 9.41 4.215 9.41 9.409h8.766c2.862 0 5.184 2.322 5.184 5.182 0 2.863-2.322 5.184-5.184 5.184h-27.713c0 5.194-4.213 9.406-9.406 9.406z"/></clipPath><linearGradient id="linearGradient374" x2="1" gradientTransform="matrix(81.3 0 0 -81.3 707.21 527.7)" gradientUnits="userSpaceOnUse"><stop stop-color="#fff" offset="0"/><stop stop-color="#fff" stop-opacity="0" offset="1"/></linearGradient><mask id="mask376" x="0" y="0" width="1" height="1" maskUnits="userSpaceOnUse"><path d="m-32768 32767h65535v-65535h-65535z" fill="url(#linearGradient374)"/></mask><linearGradient id="linearGradient396" x2="1" gradientTransform="matrix(81.3 0 0 -81.3 707.21 527.7)" gradientUnits="userSpaceOnUse"><stop stop-color="#ffffd3" offset="0"/><stop stop-color="#fff" offset="1"/></linearGradient><clipPath id="clipPath406"><path d="m731.21 522.91c-7.878 0-14.56-5.099-16.94-12.174h-15.838c-6.513 0-11.788-5.279-11.788-11.788h-10.981c-3.584 0-6.494-2.906-6.494-6.492s2.91-6.492 6.494-6.492h130.67c3.581 0 6.49 2.906 6.49 6.492s-2.909 6.492-6.49 6.492h-15.653c0 6.509-5.274 11.788-11.784 11.788h-1.032c-2.381 7.075-9.065 12.174-16.94 12.174z"/></clipPath><linearGradient id="linearGradient420" x2="1" gradientTransform="matrix(143.66 0 0 -143.66 669.17 504.44)" gradientUnits="userSpaceOnUse"><stop stop-color="#fff" offset="0"/><stop stop-color="#fff" stop-opacity="0" offset="1"/></linearGradient><mask id="mask422" x="0" y="0" width="1" height="1" maskUnits="userSpaceOnUse"><path d="m-32768 32767h65535v-65535h-65535z" fill="url(#linearGradient420)"/></mask><linearGradient id="linearGradient442" x2="1" gradientTransform="matrix(143.66 0 0 -143.66 669.17 504.44)" gradientUnits="userSpaceOnUse"><stop stop-color="#ffffd3" offset="0"/><stop stop-color="#fff" offset="1"/></linearGradient><clipPath id="clipPath452"><path d="m500 327.1c-144.69 0-271.77 75.665-344.26 189.76-40.032-63.009-63.431-137.73-63.922-217.92h816.36c-0.494 80.191-23.887 154.91-63.924 217.92-72.488-114.1-199.56-189.76-344.25-189.76"/></clipPath><linearGradient id="linearGradient468" x2="1" gradientTransform="matrix(-9.5e-6 217.92 217.92 9.5e-6 500 298.94)" gradientUnits="userSpaceOnUse"><stop stop-color="#fff" stop-opacity=".50001" offset="0"/><stop stop-color="#fff" stop-opacity="0" offset=".98925"/><stop stop-color="#fff" stop-opacity="0" offset="1"/></linearGradient><mask id="mask470" x="0" y="0" width="1" height="1" maskUnits="userSpaceOnUse"><path d="m-32768 32767h65535v-65535h-65535z" fill="url(#linearGradient468)"/></mask><linearGradient id="linearGradient492" x2="1" gradientTransform="matrix(-9.5e-6 217.92 217.92 9.5e-6 500 298.94)" gradientUnits="userSpaceOnUse"><stop stop-color="#fff" offset="0"/><stop stop-color="#ee4037" offset=".98925"/><stop stop-color="#ee4037" offset="1"/></linearGradient><clipPath id="clipPath502"><path d="m0 1e3h1e3v-1e3h-1e3z"/></clipPath><clipPath id="clipPath510"><path d="m258.36 375.28h483.28v-76.335h-483.28z"/></clipPath><clipPath id="clipPath514"><path d="m258.36 375.28h88.466v-76.335h-88.466z"/></clipPath><clipPath id="clipPath518"><path d="m258.36 329.45h14.804v-30.511h-14.804z"/></clipPath><linearGradient id="linearGradient528" x2="1" gradientTransform="matrix(14.804 0 0 -14.804 258.36 314.2)" gradientUnits="userSpaceOnUse"><stop stop-color="#a5a1a1" offset="0"/><stop stop-color="#545454" offset="1"/></linearGradient><clipPath id="clipPath532"><path d="m268.65 338.62h19.25v-39.677h-19.25z"/></clipPath><linearGradient id="linearGradient542" x2="1" gradientTransform="matrix(19.25 0 0 -19.25 268.65 318.78)" gradientUnits="userSpaceOnUse"><stop stop-color="#a5a1a1" offset="0"/><stop stop-color="#545454" offset="1"/></linearGradient><clipPath id="clipPath546"><path d="m278.93 347.78h23.691v-48.841h-23.691z"/></clipPath><linearGradient id="linearGradient556" x2="1" gradientTransform="matrix(23.691 0 0 -23.691 278.93 323.36)" gradientUnits="userSpaceOnUse"><stop stop-color="#a5a1a1" offset="0"/><stop stop-color="#545454" offset="1"/></linearGradient><clipPath id="clipPath560"><path d="m289.22 356.95h28.135v-58.005h-28.135z"/></clipPath><linearGradient id="linearGradient570" x2="1" gradientTransform="matrix(28.136 0 0 -28.136 289.22 327.95)" gradientUnits="userSpaceOnUse"><stop stop-color="#a5a1a1" offset="0"/><stop stop-color="#545454" offset="1"/></linearGradient><clipPath id="clipPath574"><path d="m299.51 366.11h32.588v-67.169h-32.588z"/></clipPath><linearGradient id="linearGradient584" x2="1" gradientTransform="matrix(32.588 0 0 -32.588 299.51 332.53)" gradientUnits="userSpaceOnUse"><stop stop-color="#a5a1a1" offset="0"/><stop stop-color="#545454" offset="1"/></linearGradient><linearGradient id="linearGradient594" x2="1" gradientTransform="matrix(37.028 0 0 -37.028 309.8 337.11)" gradientUnits="userSpaceOnUse"><stop stop-color="#a5a1a1" offset="0"/><stop stop-color="#545454" offset="1"/></linearGradient><clipPath id="clipPath598"><path d="m653.16 375.28h88.476v-76.335h-88.476z"/></clipPath><clipPath id="clipPath602"><path d="m726.83 329.45h14.807v-30.511h-14.807z"/></clipPath><linearGradient id="linearGradient612" x2="1" gradientTransform="matrix(-14.807 0 0 -14.807 741.64 314.2)" gradientUnits="userSpaceOnUse"><stop stop-color="#a5a1a1" offset="0"/><stop stop-color="#545454" offset="1"/></linearGradient><clipPath id="clipPath616"><path d="m712.1 338.62h19.247v-39.677h-19.247z"/></clipPath><linearGradient id="linearGradient626" x2="1" gradientTransform="matrix(-19.247 0 0 -19.247 731.35 318.78)" gradientUnits="userSpaceOnUse"><stop stop-color="#a5a1a1" offset="0"/><stop stop-color="#545454" offset="1"/></linearGradient><clipPath id="clipPath630"><path d="m697.37 347.78h23.694v-48.841h-23.694z"/></clipPath><linearGradient id="linearGradient640" x2="1" gradientTransform="matrix(-23.694 0 0 -23.694 721.07 323.36)" gradientUnits="userSpaceOnUse"><stop stop-color="#a5a1a1" offset="0"/><stop stop-color="#545454" offset="1"/></linearGradient><clipPath id="clipPath644"><path d="m682.64 356.95h28.137v-58.005h-28.137z"/></clipPath><linearGradient id="linearGradient654" x2="1" gradientTransform="matrix(-28.138 0 0 -28.138 710.77 327.95)" gradientUnits="userSpaceOnUse"><stop stop-color="#a5a1a1" offset="0"/><stop stop-color="#545454" offset="1"/></linearGradient><clipPath id="clipPath658"><path d="m667.91 366.11h32.584v-67.169h-32.584z"/></clipPath><linearGradient id="linearGradient668" x2="1" gradientTransform="matrix(-32.584 0 0 -32.584 700.49 332.53)" gradientUnits="userSpaceOnUse"><stop stop-color="#a5a1a1" offset="0"/><stop stop-color="#545454" offset="1"/></linearGradient><linearGradient id="linearGradient678" x2="1" gradientTransform="matrix(-37.034 0 0 -37.034 690.2 337.11)" gradientUnits="userSpaceOnUse"><stop stop-color="#a5a1a1" offset="0"/><stop stop-color="#545454" offset="1"/></linearGradient><linearGradient id="linearGradient916" x2="1" gradientTransform="matrix(51.781 0 0 -51.781 383.16 405.5)" gradientUnits="userSpaceOnUse"><stop stop-color="#ffe9a7" offset="0"/><stop stop-color="#fffce8" offset="1"/></linearGradient><clipPath id="clipPath926"><path d="m0 1e3h1e3v-1e3h-1e3z"/></clipPath><clipPath id="clipPath934"><path d="m383.16 390.67h51.781v-5.742h-51.781z"/></clipPath><linearGradient id="linearGradient960" x2="1" gradientTransform="matrix(51.777 0 0 -51.777 565.06 405.5)" gradientUnits="userSpaceOnUse"><stop stop-color="#ffe9a7" offset="0"/><stop stop-color="#fffce8" offset="1"/></linearGradient><clipPath id="clipPath970"><path d="m0 1e3h1e3v-1e3h-1e3z"/></clipPath><clipPath id="clipPath978"><path d="m565.06 390.67h51.778v-5.742h-51.778z"/></clipPath><linearGradient id="linearGradient1004" x2="1" gradientTransform="matrix(99.973 0 0 -99.973 450.01 424.64)" gradientUnits="userSpaceOnUse"><stop stop-color="#ffe9a7" offset="0"/><stop stop-color="#fffce8" offset="1"/></linearGradient><clipPath id="clipPath1014"><path d="m0 1e3h1e3v-1e3h-1e3z"/></clipPath><clipPath id="clipPath1022"><path d="m450.02 392.29h99.972v-7.367h-99.972z"/></clipPath><linearGradient id="linearGradient1050" x2="1" gradientTransform="matrix(-3.8e-6 85.983 85.983 3.8e-6 500 298.94)" gradientUnits="userSpaceOnUse"><stop stop-color="#d6c58f" offset="0"/><stop stop-color="#ffe9a7" offset=".31999"/><stop stop-color="#ffe9a7" offset="1"/></linearGradient><clipPath id="clipPath1060"><path d="m0 1e3h1e3v-1e3h-1e3z"/></clipPath><clipPath id="clipPath1068"><path d="m373.48 335.28h253.05v-36.335h-253.05z"/></clipPath><linearGradient id="linearGradient1108" x2="1" gradientTransform="matrix(-3.8e-6 85.983 85.983 3.8e-6 500 298.94)" gradientUnits="userSpaceOnUse"><stop stop-color="#d6c58f" offset="0"/><stop stop-color="#ffe9a7" offset=".33405"/><stop stop-color="#ffe9a7" offset="1"/></linearGradient><clipPath id="clipPath1118"><path d="m0 1e3h1e3v-1e3h-1e3z"/></clipPath><clipPath id="clipPath1126"><path d="m483.9 355.97h32.195v-57.032h-32.195z"/></clipPath><linearGradient id="linearGradient1154" x2="1" gradientTransform="matrix(307.84 0 0 -307.84 346.08 378.92)" gradientUnits="userSpaceOnUse"><stop stop-color="#ffe9a7" offset="0"/><stop stop-color="#fffce8" offset=".5"/><stop stop-color="#ffe9a7" offset="1"/></linearGradient><clipPath id="clipPath1164"><path d="m0 1e3h1e3v-1e3h-1e3z"/></clipPath><clipPath id="clipPath1172"><path d="m352.17 372.92h295.65v-5.774h-295.65z"/></clipPath><clipPath id="clipPath1186"><path d="m443.61 372.92h7.187v-73.982h-7.187z"/></clipPath><clipPath id="clipPath1200"><path d="m549.2 372.92h7.191v-73.982h-7.191z"/></clipPath><clipPath id="clipPath1214"><path d="m373.48 355.97h242.8v-57.032h-242.8z"/></clipPath><linearGradient id="linearGradient1258" x2="1" gradientTransform="matrix(121.01 121.01 121.01 -121.01 597.79 344.54)" gradientUnits="userSpaceOnUse"><stop stop-color="#ffe9a7" offset="0"/><stop stop-color="#ffe9a7" offset=".38172"/><stop stop-color="#fffce8" offset="1"/></linearGradient><clipPath id="clipPath1268"><path d="m0 1e3h1e3v-1e3h-1e3z"/></clipPath><clipPath id="clipPath1276"><path d="m643.38 420.38h29.818v-2.44h-29.818z"/></clipPath><clipPath id="clipPath1290"><path d="m642.96 429.01h30.666v-2.446h-30.666z"/></clipPath><clipPath id="clipPath1306"><path d="m643.38 378.06h29.818v-2.443h-29.818z"/></clipPath><clipPath id="clipPath1320"><path d="m643.94 480.73h28.703v-2.447h-28.703z"/></clipPath><clipPath id="clipPath1334"><path d="m640.82 488.12h34.951v-2.444h-34.951z"/></clipPath><clipPath id="clipPath1348"><path d="m643.38 494.73h29.818v-2.444h-29.818z"/></clipPath><clipPath id="clipPath1364"><path d="m636.36 451.94h43.854v-2.443h-43.854z"/></clipPath><clipPath id="clipPath1380"><path d="m643.38 369.43h29.818v-2.449h-29.818z"/></clipPath><linearGradient id="linearGradient1406" x2="1" gradientTransform="matrix(121.01 121.01 121.01 -121.01 281.2 344.54)" gradientUnits="userSpaceOnUse"><stop stop-color="#ffe9a7" offset="0"/><stop stop-color="#ffe9a7" offset=".38172"/><stop stop-color="#fffce8" offset="1"/></linearGradient><clipPath id="clipPath1416"><path d="m0 1e3h1e3v-1e3h-1e3z"/></clipPath><clipPath id="clipPath1424"><path d="m326.79 420.38h29.825v-2.44h-29.825z"/></clipPath><clipPath id="clipPath1438"><path d="m326.37 429.01h30.666v-2.446h-30.666z"/></clipPath><clipPath id="clipPath1454"><path d="m326.79 378.06h29.825v-2.443h-29.825z"/></clipPath><clipPath id="clipPath1468"><path d="m327.35 480.73h28.707v-2.447h-28.707z"/></clipPath><clipPath id="clipPath1482"><path d="m324.23 488.12h34.95v-2.444h-34.95z"/></clipPath><clipPath id="clipPath1496"><path d="m326.79 494.73h29.825v-2.444h-29.825z"/></clipPath><clipPath id="clipPath1512"><path d="m319.77 451.94h43.856v-2.443h-43.856z"/></clipPath><clipPath id="clipPath1528"><path d="m326.79 369.43h29.825v-2.449h-29.825z"/></clipPath></defs><g transform="matrix(1.3333 0 0 -1.3333 -122.43 943.01)"><path d="m91.821 298.94h816.36c-1.38 225.75-183.58 408.32-408.18 408.32-224.59 0-406.79-182.57-408.18-408.32" fill="url(#linearGradient28)"/><g clip-path="url(#clipPath38)"><g mask="url(#mask54)"><path d="m573.43 609.16c-5.424 0-9.821-4.398-9.821-9.824h-9.156c-2.987 0-5.409-2.426-5.409-5.413 0-2.99 2.422-5.413 5.409-5.413h28.944c0-5.427 4.397-9.825 9.821-9.825h16.335c5.428 0 9.828 4.398 9.828 9.825h9.153c2.988 0 5.412 2.423 5.412 5.413 0 2.987-2.424 5.413-5.412 5.413h-28.943c0 5.426-4.401 9.824-9.826 9.824z" fill="url(#linearGradient74)"/></g></g><g clip-path="url(#clipPath84)"><g mask="url(#mask100)"><path d="m551.59 632.52c-8.225 0-15.206-5.326-17.694-12.717h-16.541c-6.799 0-12.308-5.51-12.308-12.309h-11.47c-3.745 0-6.78-3.037-6.78-6.781 0-3.747 3.035-6.781 6.78-6.781h136.47c3.743 0 6.777 3.034 6.777 6.781 0 3.744-3.034 6.781-6.777 6.781h-16.344c0 6.799-5.513 12.309-12.312 12.309h-1.076c-2.484 7.391-9.465 12.717-17.69 12.717z" fill="url(#linearGradient120)"/></g></g><g clip-path="url(#clipPath130)"><g mask="url(#mask146)"><path d="m410.58 575.91c-5.426 0-9.822-4.396-9.822-9.823h-9.157c-2.988 0-5.41-2.425-5.41-5.414 0-2.988 2.422-5.411 5.41-5.411h28.944c0-5.426 4.398-9.826 9.825-9.826h16.335c5.424 0 9.824 4.4 9.824 9.826h9.154c2.99 0 5.412 2.423 5.412 5.411 0 2.989-2.422 5.414-5.412 5.414h-28.941c0 5.427-4.402 9.823-9.828 9.823z" fill="url(#linearGradient166)"/></g></g><g clip-path="url(#clipPath176)"><g mask="url(#mask192)"><path d="m388.73 599.26c-8.227 0-15.209-5.324-17.695-12.714h-16.54c-6.8 0-12.312-5.512-12.312-12.311h-11.468c-3.745 0-6.779-3.035-6.779-6.782 0-3.743 3.034-6.781 6.779-6.781h136.47c3.744 0 6.781 3.038 6.781 6.781 0 3.747-3.037 6.782-6.781 6.782h-16.339c0 6.799-5.513 12.311-12.313 12.311h-1.077c-2.485 7.39-9.464 12.714-17.693 12.714z" fill="url(#linearGradient212)"/></g></g><g clip-path="url(#clipPath222)"><g mask="url(#mask238)"><path d="m261.78 493.57c-4.673 0-8.46-3.786-8.46-8.458h-7.883c-2.571 0-4.659-2.088-4.659-4.663 0-2.572 2.088-4.66 4.659-4.66h24.922c0-4.673 3.788-8.462 8.46-8.462h14.066c4.674 0 8.463 3.789 8.463 8.462h7.88c2.576 0 4.661 2.088 4.661 4.66 0 2.575-2.085 4.663-4.661 4.663h-24.922c0 4.672-3.787 8.458-8.462 8.458z" fill="url(#linearGradient258)"/></g></g><g clip-path="url(#clipPath268)"><g mask="url(#mask284)"><path d="m242.97 513.68c-7.084 0-13.094-4.584-15.235-10.947h-14.244c-5.856 0-10.6-4.747-10.6-10.601h-9.876c-3.225 0-5.839-2.615-5.839-5.84s2.614-5.84 5.839-5.84h175.29c3.224 0 5.839 2.615 5.839 5.84s-2.615 5.84-5.839 5.84h-14.073c0 5.854-4.746 10.601-10.599 10.601h-0.93c-2.139 6.363-8.148 10.947-15.236 10.947z" fill="url(#linearGradient304)"/></g></g><g clip-path="url(#clipPath314)"><g mask="url(#mask330)"><path d="m752.12 500.55c-5.194 0-9.404-4.211-9.404-9.409h-8.768c-2.86 0-5.182-2.321-5.182-5.182s2.322-5.182 5.182-5.182h27.712c0-5.196 4.213-9.407 9.409-9.407h15.638c5.197 0 9.409 4.211 9.409 9.407h8.762c2.867 0 5.185 2.321 5.185 5.182s-2.318 5.182-5.185 5.182h-27.705c0 5.198-4.216 9.409-9.412 9.409z" fill="url(#linearGradient350)"/></g></g><g clip-path="url(#clipPath360)"><g mask="url(#mask376)"><path d="m730.57 542.29c-5.198 0-9.407-4.212-9.407-9.406h-8.769c-2.859 0-5.181-2.321-5.181-5.184 0-2.86 2.322-5.182 5.181-5.182h27.712c0-5.194 4.213-9.409 9.407-9.409h15.64c5.198 0 9.41 4.215 9.41 9.409h8.766c2.862 0 5.184 2.322 5.184 5.182 0 2.863-2.322 5.184-5.184 5.184h-27.713c0 5.194-4.213 9.406-9.406 9.406z" fill="url(#linearGradient396)"/></g></g><g clip-path="url(#clipPath406)"><g mask="url(#mask422)"><path d="m731.21 522.91c-7.878 0-14.56-5.099-16.94-12.174h-15.838c-6.513 0-11.788-5.279-11.788-11.788h-10.981c-3.584 0-6.494-2.906-6.494-6.492s2.91-6.492 6.494-6.492h130.67c3.581 0 6.49 2.906 6.49 6.492s-2.909 6.492-6.49 6.492h-15.653c0 6.509-5.274 11.788-11.784 11.788h-1.032c-2.381 7.075-9.065 12.174-16.94 12.174z" fill="url(#linearGradient442)"/></g></g><g clip-path="url(#clipPath452)"><g mask="url(#mask470)"><path d="m500 327.1c-144.69 0-271.77 75.665-344.26 189.76-40.032-63.009-63.431-137.73-63.922-217.92h816.36c-0.494 80.191-23.887 154.91-63.924 217.92-72.488-114.1-199.56-189.76-344.25-189.76" fill="url(#linearGradient492)"/></g></g><g clip-path="url(#clipPath502)"><g clip-path="url(#clipPath510)" opacity=".5"><g clip-path="url(#clipPath514)"><g clip-path="url(#clipPath518)" opacity=".3"><path d="m266.22 329.45h-0.915l-6.073-1.396v-0.502h-0.872v-1.258h0.872v-27.355h13.057v27.355h0.875v1.258h-0.875v0.502z" fill="url(#linearGradient528)" fill-rule="evenodd"/></g><g clip-path="url(#clipPath532)" opacity=".44"><path d="m278.86 338.62h-1.19l-7.894-1.817v-0.65h-1.134v-1.637h1.134v-35.573h16.978v35.573h1.138v1.637h-1.138v0.65z" fill="url(#linearGradient542)" fill-rule="evenodd"/></g><g clip-path="url(#clipPath546)" opacity=".58"><path d="m291.51 347.78h-1.466l-9.719-2.24v-0.797h-1.394v-2.016h1.394v-43.788h20.903v43.788h1.394v2.016h-1.394v0.797z" fill="url(#linearGradient556)" fill-rule="evenodd"/></g><g clip-path="url(#clipPath560)" opacity=".72"><path d="m304.16 356.95h-1.739l-11.542-2.658v-0.948h-1.656v-2.392h1.656v-52.007h24.821v52.007h1.658v2.392h-1.658v0.948z" fill="url(#linearGradient570)" fill-rule="evenodd"/></g><g clip-path="url(#clipPath574)" opacity=".86"><path d="m316.81 366.11h-2.013l-13.368-3.078v-1.098h-1.918v-2.771h1.918v-60.222h28.75v60.222h1.92v2.771h-1.92v1.098z" fill="url(#linearGradient584)" fill-rule="evenodd"/></g><path d="m329.46 375.28h-2.293l-15.187-3.5v-1.247h-2.18v-3.15h2.18v-68.438h32.668v68.438h2.18v3.15h-2.18v1.247z" fill="url(#linearGradient594)" fill-rule="evenodd"/></g><g clip-path="url(#clipPath598)"><g clip-path="url(#clipPath602)" opacity=".3"><path d="m727.71 328.06v-0.502h-0.875v-1.258h0.875v-27.355h13.06v27.355h0.872v1.258h-0.872v0.502l-6.076 1.396h-0.909z" fill="url(#linearGradient612)" fill-rule="evenodd"/></g><g clip-path="url(#clipPath616)" opacity=".44"><path d="m713.24 336.8v-0.65h-1.137v-1.637h1.137v-35.573h16.979v35.573h1.131v1.637h-1.131v0.65l-7.895 1.817h-1.19z" fill="url(#linearGradient626)" fill-rule="evenodd"/></g><g clip-path="url(#clipPath630)" opacity=".58"><path d="m698.77 345.54v-0.797h-1.395v-2.016h1.395v-43.788h20.902v43.788h1.397v2.016h-1.397v0.797l-9.715 2.24h-1.463z" fill="url(#linearGradient640)" fill-rule="evenodd"/></g><g clip-path="url(#clipPath644)" opacity=".72"><path d="m684.3 354.29v-0.948h-1.66v-2.392h1.66v-52.007h24.818v52.007h1.659v2.392h-1.659v0.948l-11.537 2.658h-1.741z" fill="url(#linearGradient654)" fill-rule="evenodd"/></g><g clip-path="url(#clipPath658)" opacity=".86"><path d="m669.82 363.03v-1.098h-1.915v-2.771h1.915v-60.222h28.75v60.222h1.919v2.771h-1.919v1.098l-13.365 3.078h-2.013z" fill="url(#linearGradient668)" fill-rule="evenodd"/></g><path d="m655.36 371.78v-1.247h-2.19v-3.15h2.19v-68.438h32.666v68.438h2.178v3.15h-2.178v1.247l-15.19 3.5h-2.284z" fill="url(#linearGradient678)" fill-rule="evenodd"/></g></g></g><path d="m408.34 423.3v-1.958c-0.441-0.253-0.752-0.711-0.752-1.257 0-0.545 0.311-1.004 0.752-1.258v-2.664c-0.734-0.288-1.261-1-1.261-1.837 0-0.838 0.527-1.554 1.261-1.838v-1.708c-13.963-0.383-25.177-11.797-25.177-25.855h51.781c0 14.058-11.213 25.472-25.176 25.855v1.708c0.736 0.284 1.262 1 1.262 1.838 0 0.837-0.526 1.549-1.262 1.837v2.664c0.44 0.254 0.752 0.713 0.752 1.258 0 0.546-0.312 1.004-0.752 1.257v1.958l-0.714 2.763z" fill="url(#linearGradient916)"/><g clip-path="url(#clipPath926)"><g clip-path="url(#clipPath934)" opacity=".10001"><g transform="translate(383.82 390.67)"><path d="m0 0c-0.424-1.848-0.666-3.766-0.666-5.742h51.781c0 1.976-0.242 3.894-0.664 5.742z" fill="#8f8d8d" fill-rule="evenodd"/></g></g></g><path d="m590.24 423.3v-1.958c-0.438-0.253-0.76-0.711-0.76-1.257 0-0.545 0.322-1.004 0.76-1.258v-2.664c-0.744-0.288-1.263-1-1.263-1.837 0-0.838 0.519-1.554 1.263-1.838v-1.708c-13.966-0.383-25.178-11.797-25.178-25.855h51.778c0 14.058-11.207 25.472-25.175 25.855v1.708c0.741 0.284 1.259 1 1.259 1.838 0 0.837-0.518 1.549-1.259 1.837v2.664c0.444 0.254 0.75 0.713 0.75 1.258 0 0.546-0.306 1.004-0.75 1.257v1.958l-0.716 2.763z" fill="url(#linearGradient960)"/><g clip-path="url(#clipPath970)"><g clip-path="url(#clipPath978)" opacity=".10001"><g transform="translate(565.72 390.67)"><path d="m0 0c-0.416-1.848-0.662-3.766-0.662-5.742h51.777c0 1.976-0.24 3.894-0.662 5.742z" fill="#8f8d8d" fill-rule="evenodd"/></g></g></g><path d="m498.63 459.01v-3.781c-0.858-0.485-1.464-1.37-1.464-2.425 0-1.056 0.606-1.937 1.464-2.424v-5.148c-1.433-0.554-2.44-1.929-2.44-3.547 0-1.623 1.007-2.997 2.44-3.547v-3.3c-26.964-0.735-48.616-22.773-48.616-49.914h99.973c0 27.141-21.643 49.179-48.615 49.914v3.3c1.425 0.55 2.443 1.924 2.443 3.547 0 1.618-1.018 2.993-2.443 3.547v5.148c0.862 0.487 1.456 1.368 1.456 2.424 0 1.055-0.594 1.94-1.456 2.425v3.781l-1.372 5.337z" fill="url(#linearGradient1004)"/><g clip-path="url(#clipPath1014)"><g clip-path="url(#clipPath1022)" opacity=".10001"><g transform="translate(450.61 392.29)"><path d="m0 0c-0.356-2.413-0.599-4.856-0.599-7.367h99.973c0 2.511-0.247 4.954-0.603 7.367z" fill="#8f8d8d" fill-rule="evenodd"/></g></g></g><path d="m352.17 298.94h295.65v85.983h-295.65z" fill="url(#linearGradient1050)"/><g clip-path="url(#clipPath1060)"><g clip-path="url(#clipPath1068)" opacity=".5"><g transform="translate(583.36 335.28)"><path d="m0 0c-5.656 0-10.253-4.591-10.253-10.255v-26.08h20.503v26.08c0 5.664-4.587 10.255-10.25 10.255" fill="#8f8d8d" fill-rule="evenodd"/></g><g transform="translate(616.27 335.28)"><path d="m0 0c-5.669 0-10.256-4.591-10.256-10.255v-26.08h20.509v26.08c0 5.664-4.59 10.255-10.253 10.255" fill="#8f8d8d" fill-rule="evenodd"/></g><g transform="translate(383.73 335.28)"><path d="m0 0c-5.668 0-10.255-4.591-10.255-10.255v-26.08h20.506v26.08c0 5.664-4.591 10.255-10.251 10.255" fill="#8f8d8d" fill-rule="evenodd"/></g><g transform="translate(416.64 335.28)"><path d="m0 0c-5.668 0-10.258-4.591-10.258-10.255v-26.08h20.508v26.08c0 5.664-4.593 10.255-10.25 10.255" fill="#8f8d8d" fill-rule="evenodd"/></g></g></g><path d="m450.8 298.94h98.395v85.983h-98.395z" fill="url(#linearGradient1108)"/><g clip-path="url(#clipPath1118)"><g clip-path="url(#clipPath1126)" opacity=".5"><g transform="translate(500 355.97)"><path d="m0 0c-8.896 0-16.1-7.203-16.1-16.094v-40.937h32.195v40.937c0 8.891-7.206 16.094-16.095 16.094" fill="#8f8d8d" fill-rule="evenodd"/></g></g></g><path d="m346.08 372.92h307.84v12.002h-307.84z" fill="url(#linearGradient1154)"/><g clip-path="url(#clipPath1164)"><g clip-path="url(#clipPath1172)" opacity=".10001"><path d="m647.83 367.15h-295.65v5.773h295.65z" fill="#8f8d8d" fill-rule="evenodd"/></g><g clip-path="url(#clipPath1186)" opacity=".2"><path d="m443.61 298.94h7.187v73.981h-7.187z" fill="#8f8d8d" fill-rule="evenodd"/></g><g clip-path="url(#clipPath1200)" opacity=".2"><path d="m549.2 298.94h7.19v73.981h-7.19z" fill="#8f8d8d" fill-rule="evenodd"/></g><g clip-path="url(#clipPath1214)" opacity=".3"><g transform="translate(483.9 339.88)"><path d="M 0,0 V -40.938 H 16.094 V 16.094 C 7.203,16.094 0,8.891 0,0" fill="#8f8d8d" fill-rule="evenodd"/></g><g transform="translate(573.1 325.02)"><path d="M 0,0 V -26.08 H 10.253 V 10.255 C 4.588,10.251 0,5.661 0,0" fill="#8f8d8d" fill-rule="evenodd"/></g><g transform="translate(606.02 325.02)"><path d="M 0,0 V -26.08 H 10.256 V 10.255 C 4.587,10.251 0,5.661 0,0" fill="#8f8d8d" fill-rule="evenodd"/></g><g transform="translate(373.48 325.02)"><path d="M 0,0 V -26.08 H 10.25 V 10.255 C 4.587,10.251 0,5.661 0,0" fill="#8f8d8d" fill-rule="evenodd"/></g><g transform="translate(406.39 325.02)"><path d="M 0,0 V -26.08 H 10.25 V 10.255 C 4.587,10.251 0,5.661 0,0" fill="#8f8d8d" fill-rule="evenodd"/></g></g></g><path d="m657.52 523.05v-2.124c-0.481-0.275-0.818-0.77-0.818-1.365 0-0.592 0.337-1.088 0.818-1.363v-2.897c-0.796-0.312-1.369-1.078-1.369-1.987 0-0.91 0.573-1.675 1.369-1.987v-1.673c-7.871-0.409-14.14-6.862-14.14-14.835 0-0.865 0.088-1.714 0.231-2.54h-2.797v-6.603h-4.45v-4.947h7.579v-21.432h-7.579v-7.652c4.432-5.506 7.081-12.509 7.041-20.131-0.012-1.692-0.191-3.338-0.45-4.957h-3.86v-6.185h4.285v-44.762h-4.285v-6.185h4.285v-70.487h29.818v70.487h4.285v6.185h-4.285v44.762h4.285v6.185h-3.859c-0.278 1.728-0.45 3.485-0.445 5.291 0.039 7.496 2.679 14.363 7.044 19.778v7.671h-7.578v21.432h7.578v4.947h-4.458v6.603h-2.788c0.14 0.826 0.221 1.675 0.221 2.54 0 7.973-6.266 14.426-14.131 14.835v1.673c0.794 0.312 1.373 1.077 1.373 1.987 0 0.909-0.579 1.675-1.373 1.987v2.897c0.482 0.275 0.813 0.771 0.813 1.363 0 0.595-0.331 1.09-0.813 1.365v2.124l-0.775 3zm7.248-49.368c0 1.591 1.287 2.876 2.877 2.876 1.581 0 2.878-1.285 2.878-2.876v-14.385h-5.755zm-9.351 0c0 1.591 1.285 2.876 2.875 2.876 1.588 0 2.879-1.285 2.879-2.876v-14.385h-5.754zm-9.347 0c0 1.591 1.282 2.876 2.872 2.876 1.594 0 2.876-1.285 2.876-2.876v-14.385h-5.748z" fill="url(#linearGradient1258)"/><g clip-path="url(#clipPath1268)"><g clip-path="url(#clipPath1276)" opacity=".10001"><path d="m673.2 417.94h-29.818v2.44h29.818z" fill="#8f8d8d" fill-rule="evenodd"/></g><g clip-path="url(#clipPath1290)" opacity=".10001"><g transform="translate(643.28 429.01)"><path d="m0 0c-0.082-0.821-0.197-1.637-0.322-2.446h30.666c-0.129 0.809-0.229 1.625-0.31 2.446z" fill="#8f8d8d" fill-rule="evenodd"/></g></g><g clip-path="url(#clipPath1306)" opacity=".10001"><path d="m673.2 375.61h-29.818v2.442h29.818z" fill="#8f8d8d" fill-rule="evenodd"/></g><g clip-path="url(#clipPath1320)" opacity=".10001"><path d="m672.65 478.29h-28.703v2.447h28.703z" fill="#8f8d8d" fill-rule="evenodd"/></g><g clip-path="url(#clipPath1334)" opacity=".10001"><path d="m675.77 485.68h-34.95v2.444h34.95z" fill="#8f8d8d" fill-rule="evenodd"/></g><g clip-path="url(#clipPath1348)" opacity=".10001"><g transform="translate(643.38 494.73)"><path d="m0 0c6e-3 -0.834 0.094-1.646 0.231-2.443h29.366c0.134 0.797 0.215 1.609 0.221 2.443z" fill="#8f8d8d" fill-rule="evenodd"/></g></g><g clip-path="url(#clipPath1364)" opacity=".10001"><g transform="translate(637.96 449.49)"><path d="m0 0h40.685c0.503 0.732 1.031 1.445 1.578 2.136v0.306h-43.854v-0.288c0.557-0.695 1.088-1.414 1.591-2.154" fill="#8f8d8d" fill-rule="evenodd"/></g></g><g clip-path="url(#clipPath1380)" opacity=".10001"><path d="m673.2 366.98h-29.818v2.448h29.818z" fill="#8f8d8d" fill-rule="evenodd"/></g></g><path d="m340.93 523.05v-2.124c-0.48-0.275-0.815-0.77-0.815-1.365 0-0.592 0.335-1.088 0.815-1.363v-2.897c-0.793-0.312-1.368-1.078-1.368-1.987 0-0.91 0.575-1.675 1.368-1.987v-1.673c-7.869-0.409-14.141-6.862-14.141-14.835 0-0.865 0.091-1.714 0.234-2.54h-2.796v-6.603h-4.453v-4.947h7.578v-21.432h-7.578v-7.652c4.434-5.506 7.085-12.509 7.046-20.131-0.016-1.692-0.195-3.338-0.454-4.957h-3.858v-6.185h4.281v-44.762h-4.281v-6.185h4.281v-70.487h29.825v70.487h4.282v6.185h-4.282v44.762h4.282v6.185h-3.858c-0.282 1.728-0.45 3.485-0.445 5.291 0.036 7.496 2.68 14.363 7.044 19.778v7.671h-7.578v21.432h7.578v4.947h-4.461v6.603h-2.789c0.143 0.826 0.227 1.675 0.227 2.54 0 7.973-6.266 14.426-14.135 14.835v1.673c0.796 0.312 1.37 1.077 1.37 1.987 0 0.909-0.574 1.675-1.37 1.987v2.897c0.481 0.275 0.817 0.771 0.817 1.363 0 0.595-0.336 1.09-0.817 1.365v2.124l-0.772 3zm7.249-49.368c0 1.591 1.289 2.876 2.878 2.876 1.584 0 2.881-1.285 2.881-2.876v-14.385h-5.759zm-9.351 0c0 1.591 1.287 2.876 2.879 2.876 1.589 0 2.875-1.285 2.875-2.876v-14.385h-5.754zm-9.344 0c0 1.591 1.28 2.876 2.87 2.876 1.595 0 2.877-1.285 2.877-2.876v-14.385h-5.747z" fill="url(#linearGradient1406)"/><g clip-path="url(#clipPath1416)"><g clip-path="url(#clipPath1424)" opacity=".10001"><path d="m356.61 417.94h-29.825v2.44h29.825z" fill="#8f8d8d" fill-rule="evenodd"/></g><g clip-path="url(#clipPath1438)" opacity=".10001"><g transform="translate(326.69 429.01)"><path d="m0 0c-0.074-0.821-0.191-1.637-0.315-2.446h30.666c-0.128 0.809-0.232 1.625-0.308 2.446z" fill="#8f8d8d" fill-rule="evenodd"/></g></g><g clip-path="url(#clipPath1454)" opacity=".10001"><path d="m356.61 375.61h-29.825v2.442h29.825z" fill="#8f8d8d" fill-rule="evenodd"/></g><g clip-path="url(#clipPath1468)" opacity=".10001"><path d="m356.06 478.29h-28.707v2.447h28.707z" fill="#8f8d8d" fill-rule="evenodd"/></g><g clip-path="url(#clipPath1482)" opacity=".10001"><path d="m359.18 485.68h-34.95v2.444h34.95z" fill="#8f8d8d" fill-rule="evenodd"/></g><g clip-path="url(#clipPath1496)" opacity=".10001"><g transform="translate(326.79 494.73)"><path d="m0 0c8e-3 -0.834 0.096-1.646 0.234-2.443h29.365c0.135 0.797 0.218 1.609 0.226 2.443z" fill="#8f8d8d" fill-rule="evenodd"/></g></g><g clip-path="url(#clipPath1512)" opacity=".10001"><g transform="translate(321.37 449.49)"><path d="m0 0h40.688c0.5 0.732 1.028 1.445 1.575 2.136v0.306h-43.856v-0.288c0.559-0.695 1.091-1.414 1.593-2.154" fill="#8f8d8d" fill-rule="evenodd"/></g></g><g clip-path="url(#clipPath1528)" opacity=".10001"><path d="m356.61 366.98h-29.825v2.448h29.825z" fill="#8f8d8d" fill-rule="evenodd"/></g></g></g></svg>
